
        <svg xmlns="http://www.w3.org/2000/svg" xmlns:xlink="http://www.w3.org/1999/xlink" version="1.1" width="3203.3898305084745" 
        height="968.6440677966101" viewBox="0 0 3203.3898305084745 968.6440677966101">
			<rect fill="#ffffff" width="3203.3898305084745" height="968.6440677966101"/>
			<g transform="scale(10.169491525423728) translate(10, 10)">
				<defs id="SvgjsDefs2837"></defs><g id="SvgjsG2838" featureKey="symbolContainer" transform="matrix(1.505,0,0,1.505,0,0)" fill="#0081c6"><circle cx="25" cy="25" r="25"></circle></g><g id="SvgjsG2839" featureKey="symbolFeature-0" transform="matrix(0.4654270371324164,0,0,0.4654270371324164,14.27564017574127,14.351923578801266)" fill="#ffffff"><g xmlns="http://www.w3.org/2000/svg"><path d="M87.614,72.943c-0.304-2.004-1.368-3.771-2.999-4.974c-1.314-0.969-2.869-1.479-4.498-1.479   c-1.965,0-3.842,0.781-5.243,2.117l-4.854-3.791c3.097-4.156,4.931-9.303,4.931-14.871s-1.834-10.714-4.931-14.87l4.854-3.792   c1.399,1.337,3.278,2.119,5.243,2.119c1.629,0,3.184-0.513,4.498-1.481c1.631-1.202,2.695-2.968,2.998-4.973   c0.303-2.003-0.191-4.005-1.396-5.635c-1.426-1.932-3.709-3.085-6.11-3.085c-1.629,0-3.185,0.512-4.498,1.481   c-1.631,1.202-2.695,2.968-2.998,4.972c-0.262,1.713,0.068,3.422,0.92,4.902l-4.883,3.815c-4.351-4.896-10.59-8.073-17.565-8.373   v-6.393c3.758-0.54,6.608-3.83,6.501-7.716c-0.116-4.136-3.445-7.375-7.581-7.375l-0.215,0.003   c-4.182,0.117-7.488,3.613-7.372,7.795c0.105,3.768,2.88,6.783,6.5,7.292v6.396c-6.976,0.3-13.215,3.478-17.565,8.373l-4.883-3.815   c0.851-1.479,1.18-3.189,0.921-4.902c-0.303-2.003-1.369-3.77-2.999-4.972c-1.314-0.969-2.869-1.481-4.497-1.481   c-2.403,0-4.688,1.153-6.111,3.085c-1.203,1.631-1.699,3.632-1.396,5.636c0.303,2.004,1.368,3.771,2.999,4.973   c1.314,0.969,2.87,1.481,4.498,1.481c1.965,0,3.842-0.781,5.243-2.118l4.854,3.792c-3.095,4.155-4.929,9.302-4.929,14.87   s1.834,10.715,4.93,14.871l-4.854,3.793c-1.401-1.338-3.278-2.119-5.243-2.119c-1.629,0-3.184,0.512-4.498,1.48   c-1.631,1.202-2.695,2.969-2.998,4.973c-0.303,2.004,0.191,4.006,1.395,5.635c1.426,1.934,3.709,3.086,6.111,3.086   c1.629,0,3.184-0.512,4.498-1.48c1.631-1.203,2.695-2.969,2.998-4.973c0.26-1.713-0.069-3.422-0.92-4.9l4.883-3.815   c4.35,4.896,10.589,8.071,17.565,8.373v6.394c-3.758,0.541-6.608,3.829-6.501,7.717c0.116,4.135,3.446,7.375,7.58,7.375   l0.215-0.002c4.183-0.117,7.488-3.613,7.373-7.795c-0.104-3.769-2.881-6.783-6.5-7.293v-6.396   c6.976-0.302,13.215-3.478,17.563-8.373l4.884,3.815c-0.851,1.479-1.181,3.188-0.921,4.9c0.304,2.004,1.367,3.77,2.998,4.973   c1.314,0.97,2.869,1.48,4.498,1.48c2.402,0,4.688-1.152,6.11-3.084C87.421,76.949,87.916,74.947,87.614,72.943z M74.754,25.004   c0.217-1.431,0.977-2.693,2.143-3.552c0.939-0.692,2.049-1.058,3.211-1.058c1.718,0,3.349,0.824,4.365,2.204   c0.859,1.165,1.213,2.594,0.998,4.025c-0.217,1.431-0.977,2.692-2.143,3.552c-0.939,0.692-2.049,1.058-3.211,1.058   c-1.717,0-3.35-0.823-4.367-2.203C74.891,27.865,74.537,26.435,74.754,25.004z M19.883,31.233c-1.162,0-2.273-0.366-3.212-1.058   c-1.165-0.859-1.926-2.121-2.142-3.552c-0.216-1.432,0.138-2.861,0.997-4.026c1.018-1.379,2.65-2.203,4.367-2.203   c1.162,0,2.272,0.365,3.21,1.058c1.165,0.859,1.926,2.121,2.143,3.552c0.216,1.431-0.138,2.861-0.997,4.026   C23.232,30.41,21.6,31.233,19.883,31.233z M25.246,74.887c-0.217,1.432-0.977,2.693-2.143,3.553   c-0.939,0.691-2.049,1.058-3.211,1.058c-1.717,0-3.348-0.824-4.365-2.203c-0.859-1.166-1.213-2.594-0.998-4.024   c0.217-1.433,0.977-2.693,2.143-3.554c0.939-0.69,2.049-1.057,3.211-1.057c1.717,0,3.35,0.821,4.367,2.202   C25.109,72.025,25.463,73.455,25.246,74.887z M44.583,11.276C44.5,8.29,46.862,5.792,49.849,5.709l0.154-0.002   c2.953,0,5.331,2.314,5.413,5.269c0.084,2.987-2.279,5.484-5.265,5.568l-0.154,0.002C47.043,16.545,44.666,14.23,44.583,11.276z    M55.417,88.615c0.083,2.986-2.278,5.484-5.267,5.566l-0.154,0.002c-2.952,0-5.33-2.314-5.412-5.269   c-0.084-2.988,2.279-5.483,5.266-5.567l0.154-0.003C52.957,83.346,55.334,85.66,55.417,88.615z M51.084,70.564   c-0.361,0.018-0.717,0.055-1.083,0.055s-0.723-0.037-1.084-0.055c-5.607-0.293-10.619-2.82-14.173-6.72   c-0.487-0.534-0.946-1.094-1.376-1.678c-2.526-3.428-4.039-7.646-4.039-12.224c0-4.575,1.513-8.793,4.039-12.222   c0.43-0.583,0.888-1.142,1.375-1.676c3.554-3.898,8.566-6.425,14.173-6.719c0.361-0.019,0.718-0.055,1.084-0.055   c0.365,0,0.723,0.036,1.082,0.055c5.605,0.292,10.619,2.82,14.174,6.718c0.487,0.535,0.946,1.093,1.376,1.676   c2.527,3.429,4.04,7.647,4.04,12.224c0,4.578-1.512,8.797-4.038,12.227c-0.431,0.582-0.889,1.141-1.376,1.676   C61.703,67.744,56.689,70.271,51.084,70.564z M84.475,77.293c-1.019,1.379-2.65,2.203-4.367,2.203   c-1.162,0-2.272-0.365-3.211-1.057c-1.166-0.859-1.926-2.121-2.143-3.554c-0.217-1.432,0.137-2.86,0.996-4.024   c1.018-1.381,2.65-2.203,4.367-2.203c1.162,0,2.273,0.365,3.212,1.057c1.165,0.859,1.926,2.121,2.142,3.553   C85.688,74.699,85.332,76.127,84.475,77.293z"></path></g><path xmlns="http://www.w3.org/2000/svg" d="M64.362,36.49c-0.469-1.967-2.813-3.095-5.234-2.517l-13.235,3.159c-2.422,0.577-4.004,2.64-3.535,4.607  c0.236,0.99,0.947,1.766,1.903,2.22v14.073c-0.84-0.338-1.805-0.531-2.832-0.531c-3.245,0-5.874,1.918-5.874,4.284  c0,2.365,2.629,4.283,5.874,4.283c3.244,0,5.873-1.918,5.873-4.283c0-0.112-0.011-0.223-0.023-0.332  c0.014-0.14,0.023-0.282,0.023-0.428V44.313c0.096-0.018,0.193-0.034,0.291-0.057l12.422-2.964v12.32  c-0.84-0.337-1.806-0.531-2.832-0.531c-3.244,0-5.873,1.918-5.873,4.284c0,2.365,2.629,4.283,5.873,4.283  c3.242,0,5.873-1.918,5.873-4.283c0-0.112-0.013-0.223-0.023-0.332c0.015-0.14,0.023-0.282,0.023-0.429V39.971  C64.119,39.047,64.663,37.749,64.362,36.49z"></path></g><g id="SvgjsG2840" featureKey="nameFeature-0" transform="matrix(1.3586956803424604,0,0,1.3586956803424604,93.47826099350682,-10.913043455726033)" fill="#111111"><path d="M14.04 40.56 c-6.84 0 -11.36 -4.12 -12.92 -8.48 l5.24 -1.6 c1.12 2.92 3.96 5.24 8 5.24 c3.28 0 5.32 -1.68 5.32 -3.52 c0 -1.48 -1 -2.48 -3.68 -3.36 l-7.16 -2.24 c-3.68 -1.16 -6.36 -3.52 -6.32 -7.12 c-0.04 -4.36 4.2 -8.04 10.04 -8.04 c6.04 0 10.52 3.32 12.04 7.2 l-5.08 1.48 c-1.16 -2.28 -3.76 -3.84 -6.92 -3.84 c-2.76 0 -4.52 1.4 -4.52 3.04 c0 1.24 0.84 2.08 2.68 2.64 l6.96 2.24 c4.28 1.32 7.52 3.12 7.52 7.68 c0 4.8 -4.48 8.68 -11.2 8.68 z M44.32 19.76 l5.64 0 l-12.16 28.64 l-5.44 0 l3.68 -8.84 l-9.16 -19.8 l5.8 0 l6 13.68 z M64.52000000000001 19.2 c5.28 0 7.96 3.56 7.96 8.96 l0 11.84 l-5.28 0 l0 -10.84 c0 -3.08 -1.4 -5.04 -4.32 -5.04 c-2.96 0 -4.88 2.32 -4.88 5.88 l0 10 l-5.28 0 l0 -20.24 l5.28 0 l0 2.56 c1.4 -1.8 3.6 -3.12 6.52 -3.12 z M87.00000000000001 40.56 c-6.2 0 -10.76 -4.64 -10.76 -10.72 c0 -6.04 4.56 -10.64 10.72 -10.64 c5.6 0 9.08 3.6 9.88 6.64 l-4.92 1.4 c-0.44 -1.68 -2.32 -3.36 -4.96 -3.36 c-3.36 0 -5.52 2.76 -5.52 5.96 c0 3.16 2.16 6 5.52 6 c2.64 0 4.52 -1.56 4.96 -3.24 l4.92 1.36 c-0.8 3.08 -4.28 6.6 -9.84 6.6 z M103.36000000000001 16.92 c-1.76 0 -3.16 -1.36 -3.16 -3.12 c0 -1.68 1.4 -3.04 3.16 -3.04 s3.16 1.36 3.16 3.04 c0 1.76 -1.4 3.12 -3.16 3.12 z M100.64000000000001 40 l0 -20.24 l5.32 0 l0 20.24 l-5.32 0 z M118.56000000000002 17.92 l0 1.84 l6.12 0 l0 4.64 l-6.12 0 l0 15.6 l-5.28 0 l0 -15.6 l-3.88 0 l0 -4.64 l3.88 0 l0 -1.84 c0 -4.68 2.4 -7.68 7.12 -7.68 c1.76 0 3.2 0.24 4.56 0.88 l-1.28 4.24 c-0.84 -0.36 -1.52 -0.52 -2.52 -0.52 c-1.68 0 -2.6 1.16 -2.6 3.08 z M142.68 19.76 l5.64 0 l-12.16 28.64 l-5.44 0 l3.68 -8.84 l-9.16 -19.8 l5.8 0 l6 13.68 z"></path></g><g id="SvgjsG2841" featureKey="sloganFeature-0" transform="matrix(0.5297026536318405,0,0,0.5297026536318405,94.61861420052111,61.97010169010763)" fill="#111111"><path d="M8.08 20.28 c-4.22 0 -7.36 -3.16 -7.36 -7.3 c0 -4.12 3.14 -7.26 7.3 -7.26 c3.78 0 6.14 2.32 6.78 4.54 l-2.68 0.66 c-0.46 -1.36 -1.96 -2.62 -4.08 -2.62 c-2.76 0 -4.52 2.14 -4.52 4.66 s1.76 4.74 4.52 4.74 c2.12 0 3.62 -1.22 4.08 -2.6 l2.66 0.68 c-0.64 2.24 -3 4.5 -6.7 4.5 z M26.835 20.28 c-4.24 0 -7.36 -3.16 -7.36 -7.3 c0 -4.12 3.12 -7.26 7.36 -7.26 c4.22 0 7.34 3.14 7.34 7.26 c0 4.14 -3.12 7.3 -7.34 7.3 z M26.835 17.740000000000002 c2.76 0 4.58 -2.08 4.58 -4.76 c0 -2.62 -1.82 -4.72 -4.58 -4.72 c-2.78 0 -4.58 2.1 -4.58 4.72 c0 2.68 1.8 4.76 4.58 4.76 z M51.23 6 l2.62 0 l0 14 l-2.74 0 l0 -9.22 l-4.46 6.18 l-4.46 -6.18 l0 9.22 l-2.74 0 l0 -14 l2.62 0 l4.58 6.62 z M70.025 8.48 l-7.64 0 l0 3.2 l6.62 0 l0 2.4 l-6.62 0 l0 3.44 l7.62 0 l0 2.48 l-10.3 0 l0 -14 l10.32 0 l0 2.48 z M97.61500000000001 12.219999999999999 l0 1.4 c0 3.96 -2.88 6.66 -7.08 6.66 c-4.3 0 -7.46 -3.16 -7.46 -7.3 c0 -4.12 3.18 -7.26 7.34 -7.26 c3.46 0 5.84 1.94 6.72 4.28 l-2.54 0.72 c-0.7 -1.44 -2 -2.42 -4.16 -2.42 c-2.74 0 -4.58 2.14 -4.58 4.66 s1.74 4.76 4.88 4.76 c2.36 0 3.8 -1.4 4.04 -3.14 l-4.3 0 l0 -2.36 l7.14 0 z M113.21000000000001 8.48 l-7.64 0 l0 3.2 l6.62 0 l0 2.4 l-6.62 0 l0 3.44 l7.62 0 l0 2.48 l-10.3 0 l0 -14 l10.32 0 l0 2.48 z M129.805 6 l0 2.48 l-4.7 0 l0 11.52 l-2.74 0 l0 -11.52 l-4.7 0 l0 -2.48 l12.14 0 z M142.83500000000004 20 l0 -14 l2.78 0 l0 14 l-2.78 0 z M160.77 6 l2.74 0 l0 14 l-2.26 0 l-7.04 -9.1 l0 9.1 l-2.74 0 l0 -14 l2.26 0 l7.04 9.08 l0 -9.08 z M183.26000000000005 20.28 c-3.42 0 -5.68 -2.06 -6.46 -4.24 l2.62 -0.8 c0.56 1.46 1.98 2.62 4 2.62 c1.64 0 2.66 -0.84 2.66 -1.76 c0 -0.74 -0.5 -1.24 -1.84 -1.68 l-3.58 -1.12 c-1.84 -0.58 -3.18 -1.76 -3.16 -3.56 c-0.02 -2.18 2.1 -4.02 5.02 -4.02 c3.02 0 5.26 1.66 6.02 3.6 l-2.54 0.74 c-0.58 -1.14 -1.88 -1.92 -3.46 -1.92 c-1.38 0 -2.26 0.7 -2.26 1.52 c0 0.62 0.42 1.04 1.34 1.32 l3.48 1.12 c2.14 0.66 3.76 1.56 3.76 3.84 c0 2.4 -2.24 4.34 -5.6 4.34 z M203.25500000000005 6 l3.08 0 l-5.3 8.86 l0 5.14 l-2.78 0 l0 -5.14 l-5.32 -8.86 l3.1 0 l3.62 6.22 z M220.27000000000004 6 l2.74 0 l0 14 l-2.26 0 l-7.04 -9.1 l0 9.1 l-2.74 0 l0 -14 l2.26 0 l7.04 9.08 l0 -9.08 z M235.64500000000007 20.28 c-4.22 0 -7.36 -3.16 -7.36 -7.3 c0 -4.12 3.14 -7.26 7.3 -7.26 c3.78 0 6.14 2.32 6.78 4.54 l-2.68 0.66 c-0.46 -1.36 -1.96 -2.62 -4.08 -2.62 c-2.76 0 -4.52 2.14 -4.52 4.66 s1.76 4.74 4.52 4.74 c2.12 0 3.62 -1.22 4.08 -2.6 l2.66 0.68 c-0.64 2.24 -3 4.5 -6.7 4.5 z"></path></g>
			</g>
		</svg>
	