
        <svg xmlns="http://www.w3.org/2000/svg" xmlns:xlink="http://www.w3.org/1999/xlink" version="1.1" width="3203.3898305084745" 
        height="968.6440677966101" viewBox="0 0 3203.3898305084745 968.6440677966101">
			
			<g transform="scale(10.169491525423728) translate(10, 10)">
				<defs id="SvgjsDefs2584"></defs><g id="SvgjsG2585" featureKey="symbolContainer" transform="matrix(1.505,0,0,1.505,0,0)" fill="#0081c6"><circle cx="25" cy="25" r="25"></circle></g><g id="SvgjsG2586" featureKey="symbolFeature-0" transform="matrix(0.4934999973853429,0,0,0.4934999973853429,12.466398135575199,12.92500154264767)" fill="#ffffff"><path xmlns="http://www.w3.org/2000/svg" d="M82.708,38.939C82.708,20.904,68.035,6.231,50,6.231c-18.035,0-32.708,14.673-32.708,32.708  c0,3.88,0.681,7.604,1.927,11.061c-1.246,3.456-1.927,7.18-1.927,11.061c0,18.035,14.673,32.708,32.708,32.708  c18.035,0,32.708-14.673,32.708-32.708c0-3.88-0.681-7.604-1.927-11.061C82.027,46.544,82.708,42.82,82.708,38.939z M80.355,38.939  c0,2.666-0.347,5.252-0.995,7.717c-3.929-7.975-11.011-14.128-19.61-16.819V10.19C71.72,14.261,80.355,25.611,80.355,38.939z   M57.479,42.569c-1.883-1.77-4.779-2.76-8.08-2.497c-5.968,0.472-10.987,4.83-11.234,9.732c-0.002,0.032-0.001,0.064-0.002,0.096  h-0.008v16.987C30.668,63.702,24.713,57.592,21.732,50C26.162,38.716,37.163,30.706,50,30.706c2.58,0,5.086,0.325,7.479,0.933  V42.569z M40.426,55.383c1.883,1.77,4.779,2.76,8.08,2.497c5.968-0.472,10.987-4.83,11.234-9.732  c0.002-0.032,0.001-0.064,0.002-0.096h0.008v-15.74C68.217,35.191,75.014,41.712,78.268,50C73.838,61.284,62.837,69.294,50,69.294  c-3.344,0-6.563-0.545-9.574-1.548V55.383z M19.645,38.939C19.645,22.201,33.262,8.584,50,8.584c2.58,0,5.086,0.325,7.479,0.933  v19.699c-2.403-0.564-4.907-0.864-7.479-0.864c-12.869,0-24.024,7.471-29.36,18.303C19.992,44.191,19.645,41.605,19.645,38.939z   M19.645,61.061c0-2.666,0.347-5.252,0.995-7.717c3.605,7.317,9.865,13.101,17.515,16.083v19.582  C27.286,84.385,19.645,73.598,19.645,61.061z M80.355,61.061c0,16.738-13.617,30.355-30.355,30.355  c-3.538,0-6.936-0.61-10.096-1.728h0.522V70.217c3.029,0.929,6.244,1.431,9.574,1.431c12.869,0,24.024-7.471,29.36-18.303  C80.008,55.809,80.355,58.395,80.355,61.061z"></path></g><g id="SvgjsG2587" featureKey="nameFeature-0" transform="matrix(1.3586956803424604,0,0,1.3586956803424604,93.47826099350682,-10.913043455726033)" fill="#111111"><path d="M14.04 40.56 c-6.84 0 -11.36 -4.12 -12.92 -8.48 l5.24 -1.6 c1.12 2.92 3.96 5.24 8 5.24 c3.28 0 5.32 -1.68 5.32 -3.52 c0 -1.48 -1 -2.48 -3.68 -3.36 l-7.16 -2.24 c-3.68 -1.16 -6.36 -3.52 -6.32 -7.12 c-0.04 -4.36 4.2 -8.04 10.04 -8.04 c6.04 0 10.52 3.32 12.04 7.2 l-5.08 1.48 c-1.16 -2.28 -3.76 -3.84 -6.92 -3.84 c-2.76 0 -4.52 1.4 -4.52 3.04 c0 1.24 0.84 2.08 2.68 2.64 l6.96 2.24 c4.28 1.32 7.52 3.12 7.52 7.68 c0 4.8 -4.48 8.68 -11.2 8.68 z M44.32 19.76 l5.64 0 l-12.16 28.64 l-5.44 0 l3.68 -8.84 l-9.16 -19.8 l5.8 0 l6 13.68 z M64.52000000000001 19.2 c5.28 0 7.96 3.56 7.96 8.96 l0 11.84 l-5.28 0 l0 -10.84 c0 -3.08 -1.4 -5.04 -4.32 -5.04 c-2.96 0 -4.88 2.32 -4.88 5.88 l0 10 l-5.28 0 l0 -20.24 l5.28 0 l0 2.56 c1.4 -1.8 3.6 -3.12 6.52 -3.12 z M87.00000000000001 40.56 c-6.2 0 -10.76 -4.64 -10.76 -10.72 c0 -6.04 4.56 -10.64 10.72 -10.64 c5.6 0 9.08 3.6 9.88 6.64 l-4.92 1.4 c-0.44 -1.68 -2.32 -3.36 -4.96 -3.36 c-3.36 0 -5.52 2.76 -5.52 5.96 c0 3.16 2.16 6 5.52 6 c2.64 0 4.52 -1.56 4.96 -3.24 l4.92 1.36 c-0.8 3.08 -4.28 6.6 -9.84 6.6 z M103.36000000000001 16.92 c-1.76 0 -3.16 -1.36 -3.16 -3.12 c0 -1.68 1.4 -3.04 3.16 -3.04 s3.16 1.36 3.16 3.04 c0 1.76 -1.4 3.12 -3.16 3.12 z M100.64000000000001 40 l0 -20.24 l5.32 0 l0 20.24 l-5.32 0 z M118.56000000000002 17.92 l0 1.84 l6.12 0 l0 4.64 l-6.12 0 l0 15.6 l-5.28 0 l0 -15.6 l-3.88 0 l0 -4.64 l3.88 0 l0 -1.84 c0 -4.68 2.4 -7.68 7.12 -7.68 c1.76 0 3.2 0.24 4.56 0.88 l-1.28 4.24 c-0.84 -0.36 -1.52 -0.52 -2.52 -0.52 c-1.68 0 -2.6 1.16 -2.6 3.08 z M142.68 19.76 l5.64 0 l-12.16 28.64 l-5.44 0 l3.68 -8.84 l-9.16 -19.8 l5.8 0 l6 13.68 z"></path></g><g id="SvgjsG2588" featureKey="sloganFeature-0" transform="matrix(0.5297026536318405,0,0,0.5297026536318405,94.61861420052111,61.97010169010763)" fill="#111111"><path d="M8.08 20.28 c-4.22 0 -7.36 -3.16 -7.36 -7.3 c0 -4.12 3.14 -7.26 7.3 -7.26 c3.78 0 6.14 2.32 6.78 4.54 l-2.68 0.66 c-0.46 -1.36 -1.96 -2.62 -4.08 -2.62 c-2.76 0 -4.52 2.14 -4.52 4.66 s1.76 4.74 4.52 4.74 c2.12 0 3.62 -1.22 4.08 -2.6 l2.66 0.68 c-0.64 2.24 -3 4.5 -6.7 4.5 z M26.835 20.28 c-4.24 0 -7.36 -3.16 -7.36 -7.3 c0 -4.12 3.12 -7.26 7.36 -7.26 c4.22 0 7.34 3.14 7.34 7.26 c0 4.14 -3.12 7.3 -7.34 7.3 z M26.835 17.740000000000002 c2.76 0 4.58 -2.08 4.58 -4.76 c0 -2.62 -1.82 -4.72 -4.58 -4.72 c-2.78 0 -4.58 2.1 -4.58 4.72 c0 2.68 1.8 4.76 4.58 4.76 z M51.23 6 l2.62 0 l0 14 l-2.74 0 l0 -9.22 l-4.46 6.18 l-4.46 -6.18 l0 9.22 l-2.74 0 l0 -14 l2.62 0 l4.58 6.62 z M70.025 8.48 l-7.64 0 l0 3.2 l6.62 0 l0 2.4 l-6.62 0 l0 3.44 l7.62 0 l0 2.48 l-10.3 0 l0 -14 l10.32 0 l0 2.48 z M97.61500000000001 12.219999999999999 l0 1.4 c0 3.96 -2.88 6.66 -7.08 6.66 c-4.3 0 -7.46 -3.16 -7.46 -7.3 c0 -4.12 3.18 -7.26 7.34 -7.26 c3.46 0 5.84 1.94 6.72 4.28 l-2.54 0.72 c-0.7 -1.44 -2 -2.42 -4.16 -2.42 c-2.74 0 -4.58 2.14 -4.58 4.66 s1.74 4.76 4.88 4.76 c2.36 0 3.8 -1.4 4.04 -3.14 l-4.3 0 l0 -2.36 l7.14 0 z M113.21000000000001 8.48 l-7.64 0 l0 3.2 l6.62 0 l0 2.4 l-6.62 0 l0 3.44 l7.62 0 l0 2.48 l-10.3 0 l0 -14 l10.32 0 l0 2.48 z M129.805 6 l0 2.48 l-4.7 0 l0 11.52 l-2.74 0 l0 -11.52 l-4.7 0 l0 -2.48 l12.14 0 z M142.83500000000004 20 l0 -14 l2.78 0 l0 14 l-2.78 0 z M160.77 6 l2.74 0 l0 14 l-2.26 0 l-7.04 -9.1 l0 9.1 l-2.74 0 l0 -14 l2.26 0 l7.04 9.08 l0 -9.08 z M183.26000000000005 20.28 c-3.42 0 -5.68 -2.06 -6.46 -4.24 l2.62 -0.8 c0.56 1.46 1.98 2.62 4 2.62 c1.64 0 2.66 -0.84 2.66 -1.76 c0 -0.74 -0.5 -1.24 -1.84 -1.68 l-3.58 -1.12 c-1.84 -0.58 -3.18 -1.76 -3.16 -3.56 c-0.02 -2.18 2.1 -4.02 5.02 -4.02 c3.02 0 5.26 1.66 6.02 3.6 l-2.54 0.74 c-0.58 -1.14 -1.88 -1.92 -3.46 -1.92 c-1.38 0 -2.26 0.7 -2.26 1.52 c0 0.62 0.42 1.04 1.34 1.32 l3.48 1.12 c2.14 0.66 3.76 1.56 3.76 3.84 c0 2.4 -2.24 4.34 -5.6 4.34 z M203.25500000000005 6 l3.08 0 l-5.3 8.86 l0 5.14 l-2.78 0 l0 -5.14 l-5.32 -8.86 l3.1 0 l3.62 6.22 z M220.27000000000004 6 l2.74 0 l0 14 l-2.26 0 l-7.04 -9.1 l0 9.1 l-2.74 0 l0 -14 l2.26 0 l7.04 9.08 l0 -9.08 z M235.64500000000007 20.28 c-4.22 0 -7.36 -3.16 -7.36 -7.3 c0 -4.12 3.14 -7.26 7.3 -7.26 c3.78 0 6.14 2.32 6.78 4.54 l-2.68 0.66 c-0.46 -1.36 -1.96 -2.62 -4.08 -2.62 c-2.76 0 -4.52 2.14 -4.52 4.66 s1.76 4.74 4.52 4.74 c2.12 0 3.62 -1.22 4.08 -2.6 l2.66 0.68 c-0.64 2.24 -3 4.5 -6.7 4.5 z"></path></g>
			</g>
		</svg>
	